<?xml version="1.0" encoding="utf-8"?>
<!-- Generator: Adobe Illustrator 19.1.0, SVG Export Plug-In . SVG Version: 6.00 Build 0)  -->
<svg version="1.1" id="Layer_1" xmlns="http://www.w3.org/2000/svg" xmlns:xlink="http://www.w3.org/1999/xlink" x="0px" y="0px"
	 viewBox="0 0 240.8 320.8" style="enable-background:new 0 0 240.8 320.8;" xml:space="preserve">
<style type="text/css">
	.st0{fill:#FF4600;}
</style>
<g>
	<path class="st0" d="M80.8,217.7c-40.1,0-72.7-32.6-72.7-72.7s32.6-72.7,72.7-72.7v51.9c-11.4,0-20.7,9.3-20.7,20.7
		c0,11.4,9.3,20.7,20.7,20.7V217.7z"/>
	<polygon points="144.8,228.3 144.8,135.8 131.8,135.8 131.8,233.8 207.9,309.8 29.2,309.8 104.8,233.8 104.8,135.8 92.8,135.8 
		92.8,228.3 0,320.8 237.1,320.8 	"/>
	<polygon class="st0" points="97.9,253 47.9,303 189.3,303 139.2,253 	"/>
	<path class="st0" d="M166.3,0C147,0,129,7.2,115.5,20.3c-10.4,10.1-22.7,28.3-22.7,57.9v46.7h52V78.1c0-24.3,16.5-26.2,21.6-26.2
		c3.8,0,22.4,1.3,22.4,26.2v58.9c0,0.3,0,26.3-32,28.5v52c61.3-2.3,84-50.1,84-80.6V78.1C240.8,40.3,214.8,0,166.3,0z"/>
</g>
</svg>
